<?xml version="1.0" encoding="UTF-8" standalone="no"?>
<!DOCTYPE svg PUBLIC "-//W3C//DTD SVG 1.1//EN"
 "http://www.w3.org/Graphics/SVG/1.1/DTD/svg11.dtd">
<!-- Generated by graphviz version 2.40.1 (20161225.0304)
 -->
<!-- Title: %3 Pages: 1 -->
<svg width="74pt" height="86pt"
 viewBox="0.00 0.00 74.00 85.88" xmlns="http://www.w3.org/2000/svg" xmlns:xlink="http://www.w3.org/1999/xlink">
<g id="graph0" class="graph" transform="scale(1 1) rotate(0) translate(4 81.875)">
<title>%3</title>
<polygon fill="#ffffff" stroke="transparent" points="-4,4 -4,-81.875 70,-81.875 70,4 -4,4"/>
<!-- b_2 -->
<g id="node1" class="node">
<title>b_2</title>
<path fill="#c0c0c0" stroke="#000000" d="M24,-75.1991C24,-76.6413 18.6214,-77.8128 12,-77.8128 5.3786,-77.8128 0,-76.6413 0,-75.1991 0,-75.1991 0,-51.6759 0,-51.6759 0,-50.2337 5.3786,-49.0622 12,-49.0622 18.6214,-49.0622 24,-50.2337 24,-51.6759 24,-51.6759 24,-75.1991 24,-75.1991"/>
<path fill="none" stroke="#000000" d="M24,-75.1991C24,-73.7569 18.6214,-72.5854 12,-72.5854 5.3786,-72.5854 0,-73.7569 0,-75.1991"/>
<text text-anchor="middle" x="12" y="-60.3375" font-family="Times,serif" font-size="12.00" fill="#000000">b</text>
</g>
<!-- 2_3 -->
<g id="node2" class="node">
<title>2_3</title>
<polygon fill="none" stroke="#000000" points="23.5,-19 .5,-19 .5,0 23.5,0 23.5,-19"/>
<text text-anchor="middle" x="12" y="-7" font-family="Times,serif" font-size="10.00" fill="#000000">2</text>
</g>
<!-- b_2&#45;&gt;2_3 -->
<g id="edge1" class="edge">
<title>b_2&#45;&gt;2_3</title>
<path fill="none" stroke="#000000" d="M12,-48.9832C12,-42.9061 12,-35.7395 12,-29.1916"/>
<polygon fill="#000000" stroke="#000000" points="15.5001,-29.0575 12,-19.0575 8.5001,-29.0576 15.5001,-29.0575"/>
</g>
<!-- a_0 -->
<g id="node3" class="node">
<title>a_0</title>
<path fill="#c0c0c0" stroke="#000000" d="M66,-75.1991C66,-76.6413 60.6214,-77.8128 54,-77.8128 47.3786,-77.8128 42,-76.6413 42,-75.1991 42,-75.1991 42,-51.6759 42,-51.6759 42,-50.2337 47.3786,-49.0622 54,-49.0622 60.6214,-49.0622 66,-50.2337 66,-51.6759 66,-51.6759 66,-75.1991 66,-75.1991"/>
<path fill="none" stroke="#000000" d="M66,-75.1991C66,-73.7569 60.6214,-72.5854 54,-72.5854 47.3786,-72.5854 42,-73.7569 42,-75.1991"/>
<text text-anchor="middle" x="54" y="-60.3375" font-family="Times,serif" font-size="12.00" fill="#000000">a</text>
</g>
<!-- 1_1 -->
<g id="node4" class="node">
<title>1_1</title>
<polygon fill="none" stroke="#000000" points="65.5,-19 42.5,-19 42.5,0 65.5,0 65.5,-19"/>
<text text-anchor="middle" x="54" y="-7" font-family="Times,serif" font-size="10.00" fill="#000000">1</text>
</g>
<!-- a_0&#45;&gt;1_1 -->
<g id="edge2" class="edge">
<title>a_0&#45;&gt;1_1</title>
<path fill="none" stroke="#000000" d="M54,-48.9832C54,-42.9061 54,-35.7395 54,-29.1916"/>
<polygon fill="#000000" stroke="#000000" points="57.5001,-29.0575 54,-19.0575 50.5001,-29.0576 57.5001,-29.0575"/>
</g>
</g>
</svg>