<?xml version="1.0" encoding="UTF-8" standalone="no"?>
<!DOCTYPE svg PUBLIC "-//W3C//DTD SVG 1.1//EN"
 "http://www.w3.org/Graphics/SVG/1.1/DTD/svg11.dtd">
<!-- Generated by graphviz version 2.40.1 (20161225.0304)
 -->
<!-- Title: %3 Pages: 1 -->
<svg width="204pt" height="686pt"
 viewBox="0.00 0.00 204.00 685.88" xmlns="http://www.w3.org/2000/svg" xmlns:xlink="http://www.w3.org/1999/xlink">
<g id="graph0" class="graph" transform="scale(1 1) rotate(0) translate(4 681.875)">
<title>%3</title>
<polygon fill="#ffffff" stroke="transparent" points="-4,4 -4,-681.875 200,-681.875 200,4 -4,4"/>
<!-- b_2 -->
<g id="node1" class="node">
<title>b_2</title>
<path fill="#c0c0c0" stroke="#7cfc00" stroke-width="1.75" d="M90,-675.1991C90,-676.6413 84.6214,-677.8128 78,-677.8128 71.3786,-677.8128 66,-676.6413 66,-675.1991 66,-675.1991 66,-651.6759 66,-651.6759 66,-650.2337 71.3786,-649.0622 78,-649.0622 84.6214,-649.0622 90,-650.2337 90,-651.6759 90,-651.6759 90,-675.1991 90,-675.1991"/>
<path fill="none" stroke="#7cfc00" stroke-width="1.75" d="M90,-675.1991C90,-673.7569 84.6214,-672.5854 78,-672.5854 71.3786,-672.5854 66,-673.7569 66,-675.1991"/>
<text text-anchor="middle" x="78" y="-660.3375" font-family="Times,serif" font-size="12.00" fill="#000000">b</text>
</g>
<!-- 2_3 -->
<g id="node2" class="node">
<title>2_3</title>
<polygon fill="none" stroke="#7cfc00" stroke-width="1.75" points="89.5,-619 66.5,-619 66.5,-600 89.5,-600 89.5,-619"/>
<text text-anchor="middle" x="78" y="-607" font-family="Times,serif" font-size="10.00" fill="#000000">2</text>
</g>
<!-- b_2&#45;&gt;2_3 -->
<g id="edge1" class="edge">
<title>b_2&#45;&gt;2_3</title>
<path fill="none" stroke="#000000" d="M78,-648.9832C78,-642.9061 78,-635.7395 78,-629.1916"/>
<polygon fill="#000000" stroke="#000000" points="81.5001,-629.0575 78,-619.0575 74.5001,-629.0576 81.5001,-629.0575"/>
</g>
<!-- collect_inputs_for_preprocess_4 -->
<g id="node5" class="node">
<title>collect_inputs_for_preprocess_4</title>
<polygon fill="#add8e6" stroke="#7cfc00" stroke-width="1.75" points="196,-570 0,-570 0,-549 196,-549 196,-570"/>
<text text-anchor="middle" x="98" y="-556.4" font-family="Times,serif" font-size="12.00" fill="#000000">collect_inputs_for_preprocess</text>
</g>
<!-- 2_3&#45;&gt;collect_inputs_for_preprocess_4 -->
<g id="edge6" class="edge">
<title>2_3&#45;&gt;collect_inputs_for_preprocess_4</title>
<path fill="none" stroke="#000000" d="M81.8562,-599.8595C84.1442,-594.1396 87.1327,-586.6683 89.9156,-579.7111"/>
<polygon fill="#000000" stroke="#000000" points="93.2759,-580.7343 93.7402,-570.1496 86.7765,-578.1345 93.2759,-580.7343"/>
</g>
<!-- a_0 -->
<g id="node3" class="node">
<title>a_0</title>
<path fill="#c0c0c0" stroke="#7cfc00" stroke-width="1.75" d="M132,-675.1991C132,-676.6413 126.6214,-677.8128 120,-677.8128 113.3786,-677.8128 108,-676.6413 108,-675.1991 108,-675.1991 108,-651.6759 108,-651.6759 108,-650.2337 113.3786,-649.0622 120,-649.0622 126.6214,-649.0622 132,-650.2337 132,-651.6759 132,-651.6759 132,-675.1991 132,-675.1991"/>
<path fill="none" stroke="#7cfc00" stroke-width="1.75" d="M132,-675.1991C132,-673.7569 126.6214,-672.5854 120,-672.5854 113.3786,-672.5854 108,-673.7569 108,-675.1991"/>
<text text-anchor="middle" x="120" y="-660.3375" font-family="Times,serif" font-size="12.00" fill="#000000">a</text>
</g>
<!-- 1_1 -->
<g id="node4" class="node">
<title>1_1</title>
<polygon fill="none" stroke="#7cfc00" stroke-width="1.75" points="130.5,-619 107.5,-619 107.5,-600 130.5,-600 130.5,-619"/>
<text text-anchor="middle" x="119" y="-607" font-family="Times,serif" font-size="10.00" fill="#000000">1</text>
</g>
<!-- a_0&#45;&gt;1_1 -->
<g id="edge2" class="edge">
<title>a_0&#45;&gt;1_1</title>
<path fill="none" stroke="#000000" d="M119.732,-648.9832C119.6193,-642.9061 119.4865,-635.7395 119.3651,-629.1916"/>
<polygon fill="#000000" stroke="#000000" points="122.8621,-628.9909 119.1772,-619.0575 115.8633,-629.1207 122.8621,-628.9909"/>
</g>
<!-- 1_1&#45;&gt;collect_inputs_for_preprocess_4 -->
<g id="edge5" class="edge">
<title>1_1&#45;&gt;collect_inputs_for_preprocess_4</title>
<path fill="none" stroke="#000000" d="M114.951,-599.8595C112.5486,-594.1396 109.4107,-586.6683 106.4887,-579.7111"/>
<polygon fill="#000000" stroke="#000000" points="109.5722,-578.0141 102.4728,-570.1496 103.1183,-580.7248 109.5722,-578.0141"/>
</g>
<!-- a_5 -->
<g id="node6" class="node">
<title>a_5</title>
<polygon fill="none" stroke="#7cfc00" stroke-width="1.75" points="130.5,-519 107.5,-519 107.5,-500 130.5,-500 130.5,-519"/>
<text text-anchor="middle" x="119" y="-507" font-family="Times,serif" font-size="10.00" fill="#000000">a</text>
</g>
<!-- collect_inputs_for_preprocess_4&#45;&gt;a_5 -->
<g id="edge3" class="edge">
<title>collect_inputs_for_preprocess_4&#45;&gt;a_5</title>
<path fill="none" stroke="#000000" d="M102.4536,-548.8963C104.945,-542.9642 108.1255,-535.3916 111.031,-528.4737"/>
<polygon fill="#000000" stroke="#000000" points="114.3335,-529.6491 114.9789,-519.074 107.8796,-526.9385 114.3335,-529.6491"/>
</g>
<!-- b_6 -->
<g id="node7" class="node">
<title>b_6</title>
<polygon fill="none" stroke="#7cfc00" stroke-width="1.75" points="89.5,-519 66.5,-519 66.5,-500 89.5,-500 89.5,-519"/>
<text text-anchor="middle" x="78" y="-507" font-family="Times,serif" font-size="10.00" fill="#000000">b</text>
</g>
<!-- collect_inputs_for_preprocess_4&#45;&gt;b_6 -->
<g id="edge4" class="edge">
<title>collect_inputs_for_preprocess_4&#45;&gt;b_6</title>
<path fill="none" stroke="#000000" d="M93.7585,-548.8963C91.3857,-542.9642 88.3567,-535.3916 85.5895,-528.4737"/>
<polygon fill="#000000" stroke="#000000" points="88.7932,-527.0588 81.8296,-519.074 82.2939,-529.6586 88.7932,-527.0588"/>
</g>
<!-- plus_a_b_7 -->
<g id="node8" class="node">
<title>plus_a_b_7</title>
<polygon fill="#add8e6" stroke="#7cfc00" stroke-width="1.75" points="112,-470 44,-470 44,-449 112,-449 112,-470"/>
<text text-anchor="middle" x="78" y="-456.4" font-family="Times,serif" font-size="12.00" fill="#000000">plus_a_b</text>
</g>
<!-- a_5&#45;&gt;plus_a_b_7 -->
<g id="edge8" class="edge">
<title>a_5&#45;&gt;plus_a_b_7</title>
<path fill="none" stroke="#000000" d="M111.0948,-499.8595C106.0772,-493.7405 99.4162,-485.6173 93.3858,-478.2632"/>
<polygon fill="#000000" stroke="#000000" points="95.78,-475.663 86.7327,-470.1496 90.3671,-480.1016 95.78,-475.663"/>
</g>
<!-- plus_a_b_9 -->
<g id="node10" class="node">
<title>plus_a_b_9</title>
<polygon fill="#add8e6" stroke="#000000" points="143,-370 75,-370 75,-349 143,-349 143,-370"/>
<text text-anchor="middle" x="109" y="-356.4" font-family="Times,serif" font-size="12.00" fill="#000000">plus_a_b</text>
</g>
<!-- a_5&#45;&gt;plus_a_b_9 -->
<g id="edge11" class="edge">
<title>a_5&#45;&gt;plus_a_b_9</title>
<path fill="none" stroke="#000000" d="M119.6303,-499.7655C120.1147,-491.7737 120.743,-480.1591 121,-470 121.2361,-460.6697 121.6215,-458.3126 121,-449 119.4179,-425.2944 115.5036,-398.2909 112.5729,-380.2014"/>
<polygon fill="#000000" stroke="#000000" points="116.0022,-379.4873 110.9048,-370.1993 109.0976,-380.6389 116.0022,-379.4873"/>
</g>
<!-- b_6&#45;&gt;plus_a_b_7 -->
<g id="edge9" class="edge">
<title>b_6&#45;&gt;plus_a_b_7</title>
<path fill="none" stroke="#000000" d="M78,-499.8595C78,-494.2726 78,-487.0149 78,-480.1973"/>
<polygon fill="#000000" stroke="#000000" points="81.5001,-480.1496 78,-470.1496 74.5001,-480.1496 81.5001,-480.1496"/>
</g>
<!-- c_8 -->
<g id="node9" class="node">
<title>c_8</title>
<polygon fill="none" stroke="#7cfc00" stroke-width="1.75" points="101,-419 79,-419 79,-400 101,-400 101,-419"/>
<text text-anchor="middle" x="90" y="-407" font-family="Times,serif" font-size="10.00" fill="#000000">c</text>
</g>
<!-- plus_a_b_7&#45;&gt;c_8 -->
<g id="edge7" class="edge">
<title>plus_a_b_7&#45;&gt;c_8</title>
<path fill="none" stroke="#000000" d="M80.5449,-448.8963C81.9355,-443.1021 83.7017,-435.743 85.3302,-428.9574"/>
<polygon fill="#000000" stroke="#000000" points="88.7718,-429.6147 87.7023,-419.074 81.9651,-427.981 88.7718,-429.6147"/>
</g>
<!-- c_8&#45;&gt;plus_a_b_9 -->
<g id="edge12" class="edge">
<title>c_8&#45;&gt;plus_a_b_9</title>
<path fill="none" stroke="#000000" d="M93.6634,-399.8595C95.837,-394.1396 98.676,-386.6683 101.3198,-379.7111"/>
<polygon fill="#000000" stroke="#000000" points="104.6727,-380.7407 104.9531,-370.1496 98.1292,-378.2542 104.6727,-380.7407"/>
</g>
<!-- d_10 -->
<g id="node11" class="node">
<title>d_10</title>
<polygon fill="none" stroke="#000000" points="120.5,-319 97.5,-319 97.5,-300 120.5,-300 120.5,-319"/>
<text text-anchor="middle" x="109" y="-307" font-family="Times,serif" font-size="10.00" fill="#000000">d</text>
</g>
<!-- plus_a_b_9&#45;&gt;d_10 -->
<g id="edge10" class="edge">
<title>plus_a_b_9&#45;&gt;d_10</title>
<path fill="none" stroke="#000000" d="M109,-348.8963C109,-343.2401 109,-336.0925 109,-329.443"/>
<polygon fill="#000000" stroke="#000000" points="112.5001,-329.0739 109,-319.074 105.5001,-329.074 112.5001,-329.0739"/>
</g>
<!-- plus_a_b_11 -->
<g id="node12" class="node">
<title>plus_a_b_11</title>
<polygon fill="#add8e6" stroke="#000000" points="143,-270 75,-270 75,-249 143,-249 143,-270"/>
<text text-anchor="middle" x="109" y="-256.4" font-family="Times,serif" font-size="12.00" fill="#000000">plus_a_b</text>
</g>
<!-- d_10&#45;&gt;plus_a_b_11 -->
<g id="edge14" class="edge">
<title>d_10&#45;&gt;plus_a_b_11</title>
<path fill="none" stroke="#000000" d="M103.542,-299.8595C102.4538,-294.2726 102.053,-287.0149 102.3397,-280.1973"/>
<polygon fill="#000000" stroke="#000000" points="105.8318,-280.4511 103.356,-270.1496 98.8673,-279.7466 105.8318,-280.4511"/>
</g>
<!-- d_10&#45;&gt;plus_a_b_11 -->
<g id="edge15" class="edge">
<title>d_10&#45;&gt;plus_a_b_11</title>
<path fill="none" stroke="#000000" d="M114.458,-299.8595C115.5462,-294.2726 115.947,-287.0149 115.6603,-280.1973"/>
<polygon fill="#000000" stroke="#000000" points="119.1327,-279.7466 114.644,-270.1496 112.1682,-280.4511 119.1327,-279.7466"/>
</g>
<!-- e_12 -->
<g id="node13" class="node">
<title>e_12</title>
<polygon fill="none" stroke="#000000" points="120.5,-219 97.5,-219 97.5,-200 120.5,-200 120.5,-219"/>
<text text-anchor="middle" x="109" y="-207" font-family="Times,serif" font-size="10.00" fill="#000000">e</text>
</g>
<!-- plus_a_b_11&#45;&gt;e_12 -->
<g id="edge13" class="edge">
<title>plus_a_b_11&#45;&gt;e_12</title>
<path fill="none" stroke="#000000" d="M109,-248.8963C109,-243.2401 109,-236.0925 109,-229.443"/>
<polygon fill="#000000" stroke="#000000" points="112.5001,-229.0739 109,-219.074 105.5001,-229.074 112.5001,-229.0739"/>
</g>
<!-- repeat_13 -->
<g id="node14" class="node">
<title>repeat_13</title>
<polygon fill="#add8e6" stroke="#000000" points="137,-170 81,-170 81,-149 137,-149 137,-170"/>
<text text-anchor="middle" x="109" y="-156.4" font-family="Times,serif" font-size="12.00" fill="#000000">repeat</text>
</g>
<!-- e_12&#45;&gt;repeat_13 -->
<g id="edge17" class="edge">
<title>e_12&#45;&gt;repeat_13</title>
<path fill="none" stroke="#000000" d="M109,-199.8595C109,-194.2726 109,-187.0149 109,-180.1973"/>
<polygon fill="#000000" stroke="#000000" points="112.5001,-180.1496 109,-170.1496 105.5001,-180.1496 112.5001,-180.1496"/>
</g>
<!-- e_array_14 -->
<g id="node15" class="node">
<title>e_array_14</title>
<polygon fill="none" stroke="#000000" points="136,-119 82,-119 82,-100 136,-100 136,-119"/>
<text text-anchor="middle" x="109" y="-107" font-family="Times,serif" font-size="10.00" fill="#000000">e_array</text>
</g>
<!-- repeat_13&#45;&gt;e_array_14 -->
<g id="edge16" class="edge">
<title>repeat_13&#45;&gt;e_array_14</title>
<path fill="none" stroke="#000000" d="M109,-148.8963C109,-143.2401 109,-136.0925 109,-129.443"/>
<polygon fill="#000000" stroke="#000000" points="112.5001,-129.0739 109,-119.074 105.5001,-129.074 112.5001,-129.0739"/>
</g>
<!-- to_dataframe_15 -->
<g id="node16" class="node">
<title>to_dataframe_15</title>
<polygon fill="#add8e6" stroke="#000000" points="158,-70 60,-70 60,-49 158,-49 158,-70"/>
<text text-anchor="middle" x="109" y="-56.4" font-family="Times,serif" font-size="12.00" fill="#000000">to_dataframe</text>
</g>
<!-- e_array_14&#45;&gt;to_dataframe_15 -->
<g id="edge19" class="edge">
<title>e_array_14&#45;&gt;to_dataframe_15</title>
<path fill="none" stroke="#000000" d="M109,-99.8595C109,-94.2726 109,-87.0149 109,-80.1973"/>
<polygon fill="#000000" stroke="#000000" points="112.5001,-80.1496 109,-70.1496 105.5001,-80.1496 112.5001,-80.1496"/>
</g>
<!-- table_16 -->
<g id="node17" class="node">
<title>table_16</title>
<polygon fill="none" stroke="#000000" points="129.5,-19 88.5,-19 88.5,0 129.5,0 129.5,-19"/>
<text text-anchor="middle" x="109" y="-7" font-family="Times,serif" font-size="10.00" fill="#000000">table</text>
</g>
<!-- to_dataframe_15&#45;&gt;table_16 -->
<g id="edge18" class="edge">
<title>to_dataframe_15&#45;&gt;table_16</title>
<path fill="none" stroke="#000000" d="M109,-48.8963C109,-43.2401 109,-36.0925 109,-29.443"/>
<polygon fill="#000000" stroke="#000000" points="112.5001,-29.0739 109,-19.074 105.5001,-29.074 112.5001,-29.0739"/>
</g>
</g>
</svg>
