<?xml version="1.0" encoding="UTF-8" standalone="no"?>
<!DOCTYPE svg PUBLIC "-//W3C//DTD SVG 1.1//EN"
 "http://www.w3.org/Graphics/SVG/1.1/DTD/svg11.dtd">
<!-- Generated by graphviz version 2.40.1 (20161225.0304)
 -->
<!-- Title: %3 Pages: 1 -->
<svg width="162pt" height="386pt"
 viewBox="0.00 0.00 162.00 385.88" xmlns="http://www.w3.org/2000/svg" xmlns:xlink="http://www.w3.org/1999/xlink">
<g id="graph0" class="graph" transform="scale(1 1) rotate(0) translate(4 381.875)">
<title>%3</title>
<polygon fill="#ffffff" stroke="transparent" points="-4,4 -4,-381.875 158,-381.875 158,4 -4,4"/>
<!-- b_2 -->
<g id="node1" class="node">
<title>b_2</title>
<path fill="#c0c0c0" stroke="#000000" d="M82,-375.1991C82,-376.6413 76.6214,-377.8128 70,-377.8128 63.3786,-377.8128 58,-376.6413 58,-375.1991 58,-375.1991 58,-351.6759 58,-351.6759 58,-350.2337 63.3786,-349.0622 70,-349.0622 76.6214,-349.0622 82,-350.2337 82,-351.6759 82,-351.6759 82,-375.1991 82,-375.1991"/>
<path fill="none" stroke="#000000" d="M82,-375.1991C82,-373.7569 76.6214,-372.5854 70,-372.5854 63.3786,-372.5854 58,-373.7569 58,-375.1991"/>
<text text-anchor="middle" x="70" y="-360.3375" font-family="Times,serif" font-size="12.00" fill="#000000">b</text>
</g>
<!-- 2_3 -->
<g id="node2" class="node">
<title>2_3</title>
<polygon fill="none" stroke="#000000" points="81.5,-319 58.5,-319 58.5,-300 81.5,-300 81.5,-319"/>
<text text-anchor="middle" x="70" y="-307" font-family="Times,serif" font-size="10.00" fill="#000000">2</text>
</g>
<!-- b_2&#45;&gt;2_3 -->
<g id="edge1" class="edge">
<title>b_2&#45;&gt;2_3</title>
<path fill="none" stroke="#000000" d="M70,-348.9832C70,-342.9061 70,-335.7395 70,-329.1916"/>
<polygon fill="#000000" stroke="#000000" points="73.5001,-329.0575 70,-319.0575 66.5001,-329.0576 73.5001,-329.0575"/>
</g>
<!-- plus_a_b_4 -->
<g id="node5" class="node">
<title>plus_a_b_4</title>
<polygon fill="#add8e6" stroke="#000000" points="130,-270 62,-270 62,-249 130,-249 130,-270"/>
<text text-anchor="middle" x="96" y="-256.4" font-family="Times,serif" font-size="12.00" fill="#000000">plus_a_b</text>
</g>
<!-- 2_3&#45;&gt;plus_a_b_4 -->
<g id="edge5" class="edge">
<title>2_3&#45;&gt;plus_a_b_4</title>
<path fill="none" stroke="#000000" d="M75.0131,-299.8595C78.0566,-294.0066 82.0537,-286.3199 85.7422,-279.2266"/>
<polygon fill="#000000" stroke="#000000" points="88.9539,-280.6365 90.4622,-270.1496 82.7434,-277.407 88.9539,-280.6365"/>
</g>
<!-- plus_a_b_10 -->
<g id="node9" class="node">
<title>plus_a_b_10</title>
<polygon fill="#add8e6" stroke="#000000" points="68,-70 0,-70 0,-49 68,-49 68,-70"/>
<text text-anchor="middle" x="34" y="-56.4" font-family="Times,serif" font-size="12.00" fill="#000000">plus_a_b</text>
</g>
<!-- 2_3&#45;&gt;plus_a_b_10 -->
<g id="edge10" class="edge">
<title>2_3&#45;&gt;plus_a_b_10</title>
<path fill="none" stroke="#000000" d="M64.0553,-299.9778C53.8303,-282.6613 34,-244.5585 34,-209.5 34,-209.5 34,-209.5 34,-159.5 34,-132.0884 34,-100.4503 34,-80.2263"/>
<polygon fill="#000000" stroke="#000000" points="37.5001,-80.01 34,-70.01 30.5001,-80.01 37.5001,-80.01"/>
</g>
<!-- a_0 -->
<g id="node3" class="node">
<title>a_0</title>
<path fill="#c0c0c0" stroke="#000000" d="M134,-375.1991C134,-376.6413 128.6214,-377.8128 122,-377.8128 115.3786,-377.8128 110,-376.6413 110,-375.1991 110,-375.1991 110,-351.6759 110,-351.6759 110,-350.2337 115.3786,-349.0622 122,-349.0622 128.6214,-349.0622 134,-350.2337 134,-351.6759 134,-351.6759 134,-375.1991 134,-375.1991"/>
<path fill="none" stroke="#000000" d="M134,-375.1991C134,-373.7569 128.6214,-372.5854 122,-372.5854 115.3786,-372.5854 110,-373.7569 110,-375.1991"/>
<text text-anchor="middle" x="122" y="-360.3375" font-family="Times,serif" font-size="12.00" fill="#000000">a</text>
</g>
<!-- 1_1 -->
<g id="node4" class="node">
<title>1_1</title>
<polygon fill="none" stroke="#000000" points="133.5,-319 110.5,-319 110.5,-300 133.5,-300 133.5,-319"/>
<text text-anchor="middle" x="122" y="-307" font-family="Times,serif" font-size="10.00" fill="#000000">1</text>
</g>
<!-- a_0&#45;&gt;1_1 -->
<g id="edge2" class="edge">
<title>a_0&#45;&gt;1_1</title>
<path fill="none" stroke="#000000" d="M122,-348.9832C122,-342.9061 122,-335.7395 122,-329.1916"/>
<polygon fill="#000000" stroke="#000000" points="125.5001,-329.0575 122,-319.0575 118.5001,-329.0576 125.5001,-329.0575"/>
</g>
<!-- 1_1&#45;&gt;plus_a_b_4 -->
<g id="edge4" class="edge">
<title>1_1&#45;&gt;plus_a_b_4</title>
<path fill="none" stroke="#000000" d="M116.9869,-299.8595C113.9434,-294.0066 109.9463,-286.3199 106.2578,-279.2266"/>
<polygon fill="#000000" stroke="#000000" points="109.2566,-277.407 101.5378,-270.1496 103.0461,-280.6365 109.2566,-277.407"/>
</g>
<!-- plus_a_b_6 -->
<g id="node7" class="node">
<title>plus_a_b_6</title>
<polygon fill="#add8e6" stroke="#000000" points="154,-170 86,-170 86,-149 154,-149 154,-170"/>
<text text-anchor="middle" x="120" y="-156.4" font-family="Times,serif" font-size="12.00" fill="#000000">plus_a_b</text>
</g>
<!-- 1_1&#45;&gt;plus_a_b_6 -->
<g id="edge7" class="edge">
<title>1_1&#45;&gt;plus_a_b_6</title>
<path fill="none" stroke="#000000" d="M127.5004,-299.8018C131.5802,-292.0221 136.8002,-280.6758 139,-270 145.4481,-238.7065 135.8165,-202.1152 128.0742,-179.8845"/>
<polygon fill="#000000" stroke="#000000" points="131.2499,-178.3806 124.5038,-170.211 124.6829,-180.8044 131.2499,-178.3806"/>
</g>
<!-- c_5 -->
<g id="node6" class="node">
<title>c_5</title>
<polygon fill="none" stroke="#000000" points="118,-219 96,-219 96,-200 118,-200 118,-219"/>
<text text-anchor="middle" x="107" y="-207" font-family="Times,serif" font-size="10.00" fill="#000000">c</text>
</g>
<!-- plus_a_b_4&#45;&gt;c_5 -->
<g id="edge3" class="edge">
<title>plus_a_b_4&#45;&gt;c_5</title>
<path fill="none" stroke="#000000" d="M98.3328,-248.8963C99.6075,-243.1021 101.2265,-235.743 102.7194,-228.9574"/>
<polygon fill="#000000" stroke="#000000" points="106.1633,-229.5924 104.8937,-219.074 99.3268,-228.0884 106.1633,-229.5924"/>
</g>
<!-- c_5&#45;&gt;plus_a_b_6 -->
<g id="edge8" class="edge">
<title>c_5&#45;&gt;plus_a_b_6</title>
<path fill="none" stroke="#000000" d="M109.5065,-199.8595C110.9591,-194.2726 112.8461,-187.0149 114.6187,-180.1973"/>
<polygon fill="#000000" stroke="#000000" points="118.1021,-180.7086 117.2311,-170.1496 111.3273,-178.9471 118.1021,-180.7086"/>
</g>
<!-- d_7 -->
<g id="node8" class="node">
<title>d_7</title>
<polygon fill="none" stroke="#000000" points="131.5,-119 108.5,-119 108.5,-100 131.5,-100 131.5,-119"/>
<text text-anchor="middle" x="120" y="-107" font-family="Times,serif" font-size="10.00" fill="#000000">d</text>
</g>
<!-- plus_a_b_6&#45;&gt;d_7 -->
<g id="edge6" class="edge">
<title>plus_a_b_6&#45;&gt;d_7</title>
<path fill="none" stroke="#000000" d="M120,-148.8963C120,-143.2401 120,-136.0925 120,-129.443"/>
<polygon fill="#000000" stroke="#000000" points="123.5001,-129.0739 120,-119.074 116.5001,-129.074 123.5001,-129.0739"/>
</g>
<!-- d_7&#45;&gt;plus_a_b_10 -->
<g id="edge11" class="edge">
<title>d_7&#45;&gt;plus_a_b_10</title>
<path fill="none" stroke="#000000" d="M108.4017,-102.7568C96.3672,-95.76 77.1174,-84.5683 61.2133,-75.3217"/>
<polygon fill="#000000" stroke="#000000" points="62.72,-72.1491 52.3157,-70.1487 59.2016,-78.2007 62.72,-72.1491"/>
</g>
<!-- plus_a_b_8 -->
<g id="node11" class="node">
<title>plus_a_b_8</title>
<polygon fill="#add8e6" stroke="#000000" points="154,-70 86,-70 86,-49 154,-49 154,-70"/>
<text text-anchor="middle" x="120" y="-56.4" font-family="Times,serif" font-size="12.00" fill="#000000">plus_a_b</text>
</g>
<!-- d_7&#45;&gt;plus_a_b_8 -->
<g id="edge13" class="edge">
<title>d_7&#45;&gt;plus_a_b_8</title>
<path fill="none" stroke="#000000" d="M114.542,-99.8595C113.4538,-94.2726 113.053,-87.0149 113.3397,-80.1973"/>
<polygon fill="#000000" stroke="#000000" points="116.8318,-80.4511 114.356,-70.1496 109.8673,-79.7466 116.8318,-80.4511"/>
</g>
<!-- d_7&#45;&gt;plus_a_b_8 -->
<g id="edge14" class="edge">
<title>d_7&#45;&gt;plus_a_b_8</title>
<path fill="none" stroke="#000000" d="M125.458,-99.8595C126.5462,-94.2726 126.947,-87.0149 126.6603,-80.1973"/>
<polygon fill="#000000" stroke="#000000" points="130.1327,-79.7466 125.644,-70.1496 123.1682,-80.4511 130.1327,-79.7466"/>
</g>
<!-- f_11 -->
<g id="node10" class="node">
<title>f_11</title>
<polygon fill="none" stroke="#000000" points="44,-19 24,-19 24,0 44,0 44,-19"/>
<text text-anchor="middle" x="34" y="-7" font-family="Times,serif" font-size="10.00" fill="#000000">f</text>
</g>
<!-- plus_a_b_10&#45;&gt;f_11 -->
<g id="edge9" class="edge">
<title>plus_a_b_10&#45;&gt;f_11</title>
<path fill="none" stroke="#000000" d="M34,-48.8963C34,-43.2401 34,-36.0925 34,-29.443"/>
<polygon fill="#000000" stroke="#000000" points="37.5001,-29.0739 34,-19.074 30.5001,-29.074 37.5001,-29.0739"/>
</g>
<!-- e_9 -->
<g id="node12" class="node">
<title>e_9</title>
<polygon fill="none" stroke="#000000" points="131.5,-19 108.5,-19 108.5,0 131.5,0 131.5,-19"/>
<text text-anchor="middle" x="120" y="-7" font-family="Times,serif" font-size="10.00" fill="#000000">e</text>
</g>
<!-- plus_a_b_8&#45;&gt;e_9 -->
<g id="edge12" class="edge">
<title>plus_a_b_8&#45;&gt;e_9</title>
<path fill="none" stroke="#000000" d="M120,-48.8963C120,-43.2401 120,-36.0925 120,-29.443"/>
<polygon fill="#000000" stroke="#000000" points="123.5001,-29.0739 120,-19.074 116.5001,-29.074 123.5001,-29.0739"/>
</g>
</g>
</svg>