<?xml version="1.0" encoding="UTF-8" standalone="no"?>
<!DOCTYPE svg PUBLIC "-//W3C//DTD SVG 1.1//EN"
 "http://www.w3.org/Graphics/SVG/1.1/DTD/svg11.dtd">
<!-- Generated by graphviz version 2.40.1 (20161225.0304)
 -->
<!-- Title: %3 Pages: 1 -->
<svg width="263pt" height="928pt"
 viewBox="0.00 0.00 263.00 927.88" xmlns="http://www.w3.org/2000/svg" xmlns:xlink="http://www.w3.org/1999/xlink">
<g id="graph0" class="graph" transform="scale(1 1) rotate(0) translate(4 923.875)">
<title>%3</title>
<polygon fill="#ffffff" stroke="transparent" points="-4,4 -4,-923.875 259,-923.875 259,4 -4,4"/>
<!-- b_2 -->
<g id="node1" class="node">
<title>b_2</title>
<path fill="#c0c0c0" stroke="#000000" d="M105,-917.1991C105,-918.6413 99.6214,-919.8128 93,-919.8128 86.3786,-919.8128 81,-918.6413 81,-917.1991 81,-917.1991 81,-893.6759 81,-893.6759 81,-892.2337 86.3786,-891.0622 93,-891.0622 99.6214,-891.0622 105,-892.2337 105,-893.6759 105,-893.6759 105,-917.1991 105,-917.1991"/>
<path fill="none" stroke="#000000" d="M105,-917.1991C105,-915.7569 99.6214,-914.5854 93,-914.5854 86.3786,-914.5854 81,-915.7569 81,-917.1991"/>
<text text-anchor="middle" x="93" y="-902.3375" font-family="Times,serif" font-size="12.00" fill="#000000">b</text>
</g>
<!-- 2_3 -->
<g id="node2" class="node">
<title>2_3</title>
<polygon fill="none" stroke="#000000" points="104.5,-861 81.5,-861 81.5,-842 104.5,-842 104.5,-861"/>
<text text-anchor="middle" x="93" y="-849" font-family="Times,serif" font-size="10.00" fill="#000000">2</text>
</g>
<!-- b_2&#45;&gt;2_3 -->
<g id="edge1" class="edge">
<title>b_2&#45;&gt;2_3</title>
<path fill="none" stroke="#000000" d="M93,-890.9832C93,-884.9061 93,-877.7395 93,-871.1916"/>
<polygon fill="#000000" stroke="#000000" points="96.5001,-871.0575 93,-861.0575 89.5001,-871.0576 96.5001,-871.0575"/>
</g>
<!-- collect_inputs_for_preprocess_4 -->
<g id="node5" class="node">
<title>collect_inputs_for_preprocess_4</title>
<polygon fill="#add8e6" stroke="#000000" points="211,-812 15,-812 15,-791 211,-791 211,-812"/>
<text text-anchor="middle" x="113" y="-798.4" font-family="Times,serif" font-size="12.00" fill="#000000">collect_inputs_for_preprocess</text>
</g>
<!-- 2_3&#45;&gt;collect_inputs_for_preprocess_4 -->
<g id="edge6" class="edge">
<title>2_3&#45;&gt;collect_inputs_for_preprocess_4</title>
<path fill="none" stroke="#000000" d="M96.8562,-841.8595C99.1442,-836.1396 102.1327,-828.6683 104.9156,-821.7111"/>
<polygon fill="#000000" stroke="#000000" points="108.2759,-822.7343 108.7402,-812.1496 101.7765,-820.1345 108.2759,-822.7343"/>
</g>
<!-- a_0 -->
<g id="node3" class="node">
<title>a_0</title>
<path fill="#c0c0c0" stroke="#000000" d="M147,-917.1991C147,-918.6413 141.6214,-919.8128 135,-919.8128 128.3786,-919.8128 123,-918.6413 123,-917.1991 123,-917.1991 123,-893.6759 123,-893.6759 123,-892.2337 128.3786,-891.0622 135,-891.0622 141.6214,-891.0622 147,-892.2337 147,-893.6759 147,-893.6759 147,-917.1991 147,-917.1991"/>
<path fill="none" stroke="#000000" d="M147,-917.1991C147,-915.7569 141.6214,-914.5854 135,-914.5854 128.3786,-914.5854 123,-915.7569 123,-917.1991"/>
<text text-anchor="middle" x="135" y="-902.3375" font-family="Times,serif" font-size="12.00" fill="#000000">a</text>
</g>
<!-- 1_1 -->
<g id="node4" class="node">
<title>1_1</title>
<polygon fill="none" stroke="#000000" points="145.5,-861 122.5,-861 122.5,-842 145.5,-842 145.5,-861"/>
<text text-anchor="middle" x="134" y="-849" font-family="Times,serif" font-size="10.00" fill="#000000">1</text>
</g>
<!-- a_0&#45;&gt;1_1 -->
<g id="edge2" class="edge">
<title>a_0&#45;&gt;1_1</title>
<path fill="none" stroke="#000000" d="M134.732,-890.9832C134.6193,-884.9061 134.4865,-877.7395 134.3651,-871.1916"/>
<polygon fill="#000000" stroke="#000000" points="137.8621,-870.9909 134.1772,-861.0575 130.8633,-871.1207 137.8621,-870.9909"/>
</g>
<!-- 1_1&#45;&gt;collect_inputs_for_preprocess_4 -->
<g id="edge5" class="edge">
<title>1_1&#45;&gt;collect_inputs_for_preprocess_4</title>
<path fill="none" stroke="#000000" d="M129.951,-841.8595C127.5486,-836.1396 124.4107,-828.6683 121.4887,-821.7111"/>
<polygon fill="#000000" stroke="#000000" points="124.5722,-820.0141 117.4728,-812.1496 118.1183,-822.7248 124.5722,-820.0141"/>
</g>
<!-- a_5 -->
<g id="node6" class="node">
<title>a_5</title>
<polygon fill="none" stroke="#000000" points="226,-761 122,-761 122,-709 226,-709 226,-761"/>
<text text-anchor="middle" x="174" y="-749" font-family="Times,serif" font-size="10.00" fill="#000000">a</text>
<text text-anchor="middle" x="174" y="-738" font-family="Times,serif" font-size="10.00" fill="#000000">type:&lt;class &#39;int&#39;&gt;</text>
<text text-anchor="middle" x="174" y="-727" font-family="Times,serif" font-size="10.00" fill="#000000">size: 28 bytes</text>
<text text-anchor="middle" x="174" y="-716" font-family="Times,serif" font-size="10.00" fill="#000000">1</text>
</g>
<!-- collect_inputs_for_preprocess_4&#45;&gt;a_5 -->
<g id="edge3" class="edge">
<title>collect_inputs_for_preprocess_4&#45;&gt;a_5</title>
<path fill="none" stroke="#000000" d="M122.8007,-790.8156C128.4218,-784.6877 135.819,-776.6236 143.2369,-768.5368"/>
<polygon fill="#000000" stroke="#000000" points="145.8242,-770.894 150.0047,-761.1588 140.6657,-766.1621 145.8242,-770.894"/>
</g>
<!-- b_6 -->
<g id="node7" class="node">
<title>b_6</title>
<polygon fill="none" stroke="#000000" points="104,-761 0,-761 0,-709 104,-709 104,-761"/>
<text text-anchor="middle" x="52" y="-749" font-family="Times,serif" font-size="10.00" fill="#000000">b</text>
<text text-anchor="middle" x="52" y="-738" font-family="Times,serif" font-size="10.00" fill="#000000">type:&lt;class &#39;int&#39;&gt;</text>
<text text-anchor="middle" x="52" y="-727" font-family="Times,serif" font-size="10.00" fill="#000000">size: 28 bytes</text>
<text text-anchor="middle" x="52" y="-716" font-family="Times,serif" font-size="10.00" fill="#000000">2</text>
</g>
<!-- collect_inputs_for_preprocess_4&#45;&gt;b_6 -->
<g id="edge4" class="edge">
<title>collect_inputs_for_preprocess_4&#45;&gt;b_6</title>
<path fill="none" stroke="#000000" d="M103.1993,-790.8156C97.5782,-784.6877 90.181,-776.6236 82.7631,-768.5368"/>
<polygon fill="#000000" stroke="#000000" points="85.3343,-766.1621 75.9953,-761.1588 80.1758,-770.894 85.3343,-766.1621"/>
</g>
<!-- plus_a_b_7 -->
<g id="node8" class="node">
<title>plus_a_b_7</title>
<polygon fill="#add8e6" stroke="#000000" points="128,-679 60,-679 60,-658 128,-658 128,-679"/>
<text text-anchor="middle" x="94" y="-665.4" font-family="Times,serif" font-size="12.00" fill="#000000">plus_a_b</text>
</g>
<!-- a_5&#45;&gt;plus_a_b_7 -->
<g id="edge8" class="edge">
<title>a_5&#45;&gt;plus_a_b_7</title>
<path fill="none" stroke="#000000" d="M142.3819,-708.7174C133.0792,-700.9846 123.1432,-692.7253 114.7109,-685.7159"/>
<polygon fill="#000000" stroke="#000000" points="116.7864,-682.8899 106.8589,-679.189 112.3117,-688.2729 116.7864,-682.8899"/>
</g>
<!-- plus_a_b_9 -->
<g id="node10" class="node">
<title>plus_a_b_9</title>
<polygon fill="#add8e6" stroke="#000000" points="168,-546 100,-546 100,-525 168,-525 168,-546"/>
<text text-anchor="middle" x="134" y="-532.4" font-family="Times,serif" font-size="12.00" fill="#000000">plus_a_b</text>
</g>
<!-- a_5&#45;&gt;plus_a_b_9 -->
<g id="edge11" class="edge">
<title>a_5&#45;&gt;plus_a_b_9</title>
<path fill="none" stroke="#000000" d="M173.7245,-708.7994C172.7436,-676.7889 168.9462,-621.3019 155,-576 152.7767,-568.778 149.2939,-561.314 145.7991,-554.7913"/>
<polygon fill="#000000" stroke="#000000" points="148.8077,-553.0017 140.8156,-546.0463 142.7259,-556.4675 148.8077,-553.0017"/>
</g>
<!-- b_6&#45;&gt;plus_a_b_7 -->
<g id="edge9" class="edge">
<title>b_6&#45;&gt;plus_a_b_7</title>
<path fill="none" stroke="#000000" d="M68.5995,-708.7174C72.9747,-701.7901 77.6167,-694.4403 81.7189,-687.9451"/>
<polygon fill="#000000" stroke="#000000" points="84.8683,-689.5129 87.2491,-679.189 78.9499,-685.7749 84.8683,-689.5129"/>
</g>
<!-- c_8 -->
<g id="node9" class="node">
<title>c_8</title>
<polygon fill="none" stroke="#000000" points="146,-628 42,-628 42,-576 146,-576 146,-628"/>
<text text-anchor="middle" x="94" y="-616" font-family="Times,serif" font-size="10.00" fill="#000000">c</text>
<text text-anchor="middle" x="94" y="-605" font-family="Times,serif" font-size="10.00" fill="#000000">type:&lt;class &#39;int&#39;&gt;</text>
<text text-anchor="middle" x="94" y="-594" font-family="Times,serif" font-size="10.00" fill="#000000">size: 28 bytes</text>
<text text-anchor="middle" x="94" y="-583" font-family="Times,serif" font-size="10.00" fill="#000000">3</text>
</g>
<!-- plus_a_b_7&#45;&gt;c_8 -->
<g id="edge7" class="edge">
<title>plus_a_b_7&#45;&gt;c_8</title>
<path fill="none" stroke="#000000" d="M94,-657.8156C94,-652.438 94,-645.5694 94,-638.5029"/>
<polygon fill="#000000" stroke="#000000" points="97.5001,-638.1587 94,-628.1588 90.5001,-638.1588 97.5001,-638.1587"/>
</g>
<!-- c_8&#45;&gt;plus_a_b_9 -->
<g id="edge12" class="edge">
<title>c_8&#45;&gt;plus_a_b_9</title>
<path fill="none" stroke="#000000" d="M109.8091,-575.7174C113.9759,-568.7901 118.3968,-561.4403 122.3037,-554.9451"/>
<polygon fill="#000000" stroke="#000000" points="125.4153,-556.5623 127.5705,-546.189 119.4168,-552.9542 125.4153,-556.5623"/>
</g>
<!-- d_10 -->
<g id="node11" class="node">
<title>d_10</title>
<polygon fill="none" stroke="#000000" points="186,-495 82,-495 82,-443 186,-443 186,-495"/>
<text text-anchor="middle" x="134" y="-483" font-family="Times,serif" font-size="10.00" fill="#000000">d</text>
<text text-anchor="middle" x="134" y="-472" font-family="Times,serif" font-size="10.00" fill="#000000">type:&lt;class &#39;int&#39;&gt;</text>
<text text-anchor="middle" x="134" y="-461" font-family="Times,serif" font-size="10.00" fill="#000000">size: 28 bytes</text>
<text text-anchor="middle" x="134" y="-450" font-family="Times,serif" font-size="10.00" fill="#000000">4</text>
</g>
<!-- plus_a_b_9&#45;&gt;d_10 -->
<g id="edge10" class="edge">
<title>plus_a_b_9&#45;&gt;d_10</title>
<path fill="none" stroke="#000000" d="M134,-524.8156C134,-519.438 134,-512.5694 134,-505.5029"/>
<polygon fill="#000000" stroke="#000000" points="137.5001,-505.1587 134,-495.1588 130.5001,-505.1588 137.5001,-505.1587"/>
</g>
<!-- plus_a_b_11 -->
<g id="node12" class="node">
<title>plus_a_b_11</title>
<polygon fill="#add8e6" stroke="#000000" points="168,-413 100,-413 100,-392 168,-392 168,-413"/>
<text text-anchor="middle" x="134" y="-399.4" font-family="Times,serif" font-size="12.00" fill="#000000">plus_a_b</text>
</g>
<!-- d_10&#45;&gt;plus_a_b_11 -->
<g id="edge14" class="edge">
<title>d_10&#45;&gt;plus_a_b_11</title>
<path fill="none" stroke="#000000" d="M127.3835,-442.7174C127.1332,-436.2734 127.2348,-429.4638 127.6883,-423.3166"/>
<polygon fill="#000000" stroke="#000000" points="131.1872,-423.5305 128.8844,-413.189 124.2355,-422.7094 131.1872,-423.5305"/>
</g>
<!-- d_10&#45;&gt;plus_a_b_11 -->
<g id="edge15" class="edge">
<title>d_10&#45;&gt;plus_a_b_11</title>
<path fill="none" stroke="#000000" d="M140.6165,-442.7174C140.8668,-436.2734 140.7652,-429.4638 140.3117,-423.3166"/>
<polygon fill="#000000" stroke="#000000" points="143.7645,-422.7094 139.1156,-413.189 136.8128,-423.5305 143.7645,-422.7094"/>
</g>
<!-- e_12 -->
<g id="node13" class="node">
<title>e_12</title>
<polygon fill="none" stroke="#000000" points="186,-362 82,-362 82,-310 186,-310 186,-362"/>
<text text-anchor="middle" x="134" y="-350" font-family="Times,serif" font-size="10.00" fill="#000000">e</text>
<text text-anchor="middle" x="134" y="-339" font-family="Times,serif" font-size="10.00" fill="#000000">type:&lt;class &#39;int&#39;&gt;</text>
<text text-anchor="middle" x="134" y="-328" font-family="Times,serif" font-size="10.00" fill="#000000">size: 28 bytes</text>
<text text-anchor="middle" x="134" y="-317" font-family="Times,serif" font-size="10.00" fill="#000000">8</text>
</g>
<!-- plus_a_b_11&#45;&gt;e_12 -->
<g id="edge13" class="edge">
<title>plus_a_b_11&#45;&gt;e_12</title>
<path fill="none" stroke="#000000" d="M134,-391.8156C134,-386.438 134,-379.5694 134,-372.5029"/>
<polygon fill="#000000" stroke="#000000" points="137.5001,-372.1587 134,-362.1588 130.5001,-372.1588 137.5001,-372.1587"/>
</g>
<!-- repeat_13 -->
<g id="node14" class="node">
<title>repeat_13</title>
<polygon fill="#add8e6" stroke="#000000" points="162,-280 106,-280 106,-259 162,-259 162,-280"/>
<text text-anchor="middle" x="134" y="-266.4" font-family="Times,serif" font-size="12.00" fill="#000000">repeat</text>
</g>
<!-- e_12&#45;&gt;repeat_13 -->
<g id="edge17" class="edge">
<title>e_12&#45;&gt;repeat_13</title>
<path fill="none" stroke="#000000" d="M134,-309.7174C134,-303.2734 134,-296.4638 134,-290.3166"/>
<polygon fill="#000000" stroke="#000000" points="137.5001,-290.189 134,-280.189 130.5001,-290.189 137.5001,-290.189"/>
</g>
<!-- e_array_14 -->
<g id="node15" class="node">
<title>e_array_14</title>
<polygon fill="none" stroke="#000000" points="215.5,-229 52.5,-229 52.5,-177 215.5,-177 215.5,-229"/>
<text text-anchor="middle" x="134" y="-217" font-family="Times,serif" font-size="10.00" fill="#000000">e_array</text>
<text text-anchor="middle" x="134" y="-206" font-family="Times,serif" font-size="10.00" fill="#000000">type:&lt;class &#39;numpy.ndarray&#39;&gt;</text>
<text text-anchor="middle" x="134" y="-195" font-family="Times,serif" font-size="10.00" fill="#000000">size: 120 bytes</text>
<text text-anchor="middle" x="134" y="-184" font-family="Times,serif" font-size="10.00" fill="#000000">array([8, 8, 8])</text>
</g>
<!-- repeat_13&#45;&gt;e_array_14 -->
<g id="edge16" class="edge">
<title>repeat_13&#45;&gt;e_array_14</title>
<path fill="none" stroke="#000000" d="M134,-258.8156C134,-253.438 134,-246.5694 134,-239.5029"/>
<polygon fill="#000000" stroke="#000000" points="137.5001,-239.1587 134,-229.1588 130.5001,-239.1588 137.5001,-239.1587"/>
</g>
<!-- to_dataframe_15 -->
<g id="node16" class="node">
<title>to_dataframe_15</title>
<polygon fill="#add8e6" stroke="#000000" points="183,-147 85,-147 85,-126 183,-126 183,-147"/>
<text text-anchor="middle" x="134" y="-133.4" font-family="Times,serif" font-size="12.00" fill="#000000">to_dataframe</text>
</g>
<!-- e_array_14&#45;&gt;to_dataframe_15 -->
<g id="edge19" class="edge">
<title>e_array_14&#45;&gt;to_dataframe_15</title>
<path fill="none" stroke="#000000" d="M134,-176.7174C134,-170.2734 134,-163.4638 134,-157.3166"/>
<polygon fill="#000000" stroke="#000000" points="137.5001,-157.189 134,-147.189 130.5001,-157.189 137.5001,-157.189"/>
</g>
<!-- table_16 -->
<g id="node17" class="node">
<title>table_16</title>
<polygon fill="none" stroke="#000000" points="255,-96 13,-96 13,0 255,0 255,-96"/>
<text text-anchor="middle" x="134" y="-84" font-family="Times,serif" font-size="10.00" fill="#000000">table</text>
<text text-anchor="middle" x="134" y="-73" font-family="Times,serif" font-size="10.00" fill="#000000">type:&lt;class &#39;pandas.core.frame.DataFrame&#39;&gt;</text>
<text text-anchor="middle" x="134" y="-62" font-family="Times,serif" font-size="10.00" fill="#000000">size: 184 bytes</text>
<text text-anchor="middle" x="134" y="-51" font-family="Times,serif" font-size="10.00" fill="#000000">+&#45;&#45;&#45;&#45;+&#45;&#45;&#45;&#45;&#45;+</text>
<text text-anchor="middle" x="134" y="-40" font-family="Times,serif" font-size="10.00" fill="#000000">| &#160;&#160;&#160;| &#160;&#160;0 |</text>
<text text-anchor="middle" x="134" y="-29" font-family="Times,serif" font-size="10.00" fill="#000000">|&#45;&#45;&#45;&#45;+&#45;&#45;&#45;&#45;&#45;|</text>
<text text-anchor="middle" x="134" y="-18" font-family="Times,serif" font-size="10.00" fill="#000000">| &#160;0 | &#160;&#160;8 |</text>
<text text-anchor="middle" x="134" y="-7" font-family="Times,serif" font-size="10.00" fill="#000000">+&#45;&#45;&#45;&#45;+&#45;&#45;&#45;&#45;&#45;+</text>
</g>
<!-- to_dataframe_15&#45;&gt;table_16 -->
<g id="edge18" class="edge">
<title>to_dataframe_15&#45;&gt;table_16</title>
<path fill="none" stroke="#000000" d="M134,-125.6482C134,-120.444 134,-113.7664 134,-106.5167"/>
<polygon fill="#000000" stroke="#000000" points="137.5001,-106.3607 134,-96.3608 130.5001,-106.3608 137.5001,-106.3607"/>
</g>
</g>
</svg>
